# xmcd
#
# Track frame offsets:
#   150
#   12685
#   23995
#   36865
#   46679
#   56548
#   67592
#   80715
#   93174
#   106023
#   117636
#   130063
#
# Disc length: 1889 seconds
#
# Revision: 0
# Processed by: cddbd v1.4PL0 Copyright (c) Steve Scherf et al.
# Submitted via: uFREEDB 1.6.0
#
DISCID=93075f0c
DTITLE=Martin, Dean - Everybody Loves Somebody and The Door Is Still Open To My Heart (New Tracks Only)
DYEAR=1964
DGENRE=Vocal
TTITLE0=Everybody Loves Somebody
TTITLE1=Your Other Love
TTITLE2=We'll Sing In the Sunshine
TTITLE3=A Little Voice
TTITLE4=Every Minute, Every Hour
TTITLE5=Clinging Vine
TTITLE6=The Door Is Still Open To My Heart
TTITLE7=In The Misty Moonlight
TTITLE8=Always Together
TTITLE9=Siesta Fiesta
TTITLE10=Take Me
TTITLE11=So Long, Baby
EXTD=
EXTT0=
EXTT1=
EXTT2=
EXTT3=
EXTT4=
EXTT5=
EXTT6=
EXTT7=
EXTT8=
EXTT9=
EXTT10=
EXTT11=
PLAYORDER=
